HIERARCHY
ROOT Hips
{
	OFFSET -3.958830 18.904000 13.208200
	CHANNELS 6 Xposition Yposition Zposition Zrotation Yrotation Xrotation 
	JOINT LHipJoint
	{
		OFFSET 0.000000 0.000000 0.000000
		CHANNELS 3 Zrotation Yrotation Xrotation
		JOINT LeftUpLeg
		{
			OFFSET 1.800000 -1.400000 0.085000
			CHANNELS 3 Zrotation Yrotation Xrotation
			JOINT LeftLeg
			{
				OFFSET 2.215000 -6.000000 0.000000
				CHANNELS 3 Zrotation Yrotation Xrotation
				JOINT LeftFoot
				{
					OFFSET 2.500000 -6.900000 0.000000
					CHANNELS 3 Zrotation Yrotation Xrotation
					JOINT LeftToeBase
					{
						OFFSET 0.200000 -0.500000 1.950000
						CHANNELS 3 Zrotation Yrotation Xrotation
						End Site
						{
							OFFSET 0.000000 0.000000 0.000000
						}
					}
				}
			}
		}
	}
	JOINT RHipJoint
	{
		OFFSET 0.000000 0.000000 0.000000
		CHANNELS 3 Zrotation Yrotation Xrotation
		JOINT RightUpLeg
		{
			OFFSET -1.800000 -1.400000 0.085000
			CHANNELS 3 Zrotation Yrotation Xrotation
			JOINT RightLeg
			{
				OFFSET -2.215000 -6.000000 0.000000
				CHANNELS 3 Zrotation Yrotation Xrotation
				JOINT RightFoot
				{
					OFFSET -2.500000 -6.900000 0.000000
					CHANNELS 3 Zrotation Yrotation Xrotation
					JOINT RightToeBase
					{
						OFFSET -0.200000 -0.500000 1.950000
						CHANNELS 3 Zrotation Yrotation Xrotation
						End Site
						{
							OFFSET 0.000000 0.000000 0.000000
						}
					}
				}
			}
		}
	}
	JOINT LowerBack
	{
		OFFSET 0.000000 0.000000 0.000000
		CHANNELS 3 Zrotation Yrotation Xrotation
		JOINT Spine
		{
			OFFSET -0.087000 1.940000 -0.288900
			CHANNELS 3 Zrotation Yrotation Xrotation
			JOINT Spine1
			{
				OFFSET 0.000000 1.950000 0.060000
				CHANNELS 3 Zrotation Yrotation Xrotation
				JOINT Neck
				{
					OFFSET 0.000000 0.000000 0.000000
					CHANNELS 3 Zrotation Yrotation Xrotation
					JOINT Neck1
					{
						OFFSET 0.000000 1.600000 0.340000
						CHANNELS 3 Zrotation Yrotation Xrotation
						JOINT Head
						{
							OFFSET 0.000000 1.667000 -0.240000
							CHANNELS 3 Zrotation Yrotation Xrotation
							End Site
							{
								OFFSET 0.000000 0.000000 0.000000
							}
						}
					}
				}
				JOINT LeftShoulder
				{
					OFFSET 0.000000 0.000000 0.000000
					CHANNELS 3 Zrotation Yrotation Xrotation
					JOINT LeftArm
					{
						OFFSET 2.700000 1.550000 -0.730000
						CHANNELS 3 Zrotation Yrotation Xrotation
						JOINT LeftForeArm
						{
							OFFSET 5.450000 0.000000 0.000000
							CHANNELS 3 Zrotation Yrotation Xrotation
							JOINT LeftHand
							{
								OFFSET 3.450000 0.000000 0.000000
								CHANNELS 3 Zrotation Yrotation Xrotation
								JOINT LeftHandIndex1
								{
									OFFSET 0.750000 0.000000 0.000000
									CHANNELS 3 Zrotation Yrotation Xrotation
									End Site
									{
										OFFSET 0.000000 0.000000 0.000000
									}
								}
							}
						}
					}
				}
				JOINT RightShoulder
				{
					OFFSET 0.000000 0.000000 0.000000
					CHANNELS 3 Zrotation Yrotation Xrotation
					JOINT RightArm
					{
						OFFSET -2.700000 1.550000 -0.730000
						CHANNELS 3 Zrotation Yrotation Xrotation
						JOINT RightForeArm
						{
							OFFSET -5.450000 0.000000 0.000000
							CHANNELS 3 Zrotation Yrotation Xrotation
							JOINT RightHand
							{
								OFFSET -3.450000 0.000000 0.000000
								CHANNELS 3 Zrotation Yrotation Xrotation
								JOINT RightHandIndex1
								{
									OFFSET -0.750000 0.000000 0.000000
									CHANNELS 3 Zrotation Yrotation Xrotation
									End Site
									{
										OFFSET 0.000000 0.000000 0.000000
									}
								}
							}
						}
					}
				}
			}
		}
	}
}
MOTION
Frames: 9
Frame Time: 0.016667
-0.064580 17.090960 -2.738080 -2.739104 20.964829 -8.833504 -15.173248 13.569326 3.241812 3.394568 -0.721130 -6.545959 -10.115522 6.219699 10.871382 -0.221418 4.091281 3.171218 0.493880 0.415830 0.316480 18.049633 -11.091126 3.011922 -4.649443 4.212402 -12.821485 12.844474 -10.334848 33.840560 -0.835737 -5.807441 2.312542 0.209250 -0.083670 0.042430 -3.912602 -1.298914 -8.087260 13.209390 -7.187486 33.670605 -20.274804 -0.049348 7.022867 14.219426 -3.019418 -9.182347 -5.821823 0.474480 44.885173 1.967560 -4.942590 -20.832000 -31.632963 -8.245940 2.137144 -37.346438 -4.403884 -10.840257 -22.632517 -47.611768 5.618468 -3.071856 3.329018 0.538430 -0.191470 0.170420 0.050310 2.806644 13.853770 5.793413 -8.281173 6.020446 -9.532554 -36.076972 40.764212 -10.792999 2.019026 -1.384547 -0.035830 0.259750 -0.054950 -0.151170 
-0.060500 17.087060 -2.734630 -2.742587 21.130088 -8.998467 -15.156212 13.533892 3.230183 3.415584 -0.703233 -6.354345 -10.171810 6.255037 10.946489 -0.213336 4.104406 3.167006 0.493790 0.419070 0.312820 18.067347 -11.118104 3.019675 -4.793608 4.296942 -12.775865 12.969308 -10.438474 34.100293 -0.850276 -5.866802 2.293161 0.209460 -0.083260 0.038700 -3.972239 -1.185625 -8.086184 13.421221 -7.231979 33.598622 -20.533975 0.015701 7.200446 14.087593 -2.993289 -9.376794 -5.797776 0.381406 45.020238 2.297180 -5.034170 -20.762410 -31.603983 -8.343138 2.289537 -37.393492 -3.781434 -11.348546 -22.472433 -48.136776 5.464510 -3.048681 3.340969 0.539900 -0.194860 0.172740 0.052300 3.013211 13.941340 6.089158 -9.278770 6.382856 -8.964093 -33.766250 36.044674 -8.826945 2.080396 -1.403179 -0.035330 0.262810 -0.055970 -0.148630 
-0.057250 17.084000 -2.731540 -2.735754 21.294142 -9.151773 -15.138875 13.497980 3.218235 3.416285 -0.686928 -6.167473 -10.201615 6.280984 11.010857 -0.207002 4.113960 3.164710 0.493270 0.420540 0.309230 18.085540 -11.146284 3.026719 -4.935374 4.370567 -12.726909 13.089710 -10.536551 34.331076 -0.863785 -5.922014 2.275556 0.208660 -0.082020 0.035160 -4.032967 -1.071489 -8.085159 13.633322 -7.270888 33.525772 -20.784774 0.082089 7.372698 13.935772 -2.962532 -9.564415 -5.781828 0.279319 45.185647 2.645120 -5.159440 -20.702540 -31.553648 -8.489277 2.455880 -37.429907 -3.220768 -11.806484 -22.359192 -48.630792 5.336905 -3.026597 3.351446 0.542410 -0.198310 0.174610 0.054490 3.240920 14.065069 6.358370 -10.200385 6.664513 -8.473693 -31.780387 31.948696 -7.317251 2.133167 -1.406458 -0.035620 0.266230 -0.056670 -0.146160 
-0.054340 17.081330 -2.728650 -2.727582 21.466451 -9.282400 -15.122075 13.463920 3.205721 3.395596 -0.673554 -6.006089 -10.188687 6.294848 11.070683 -0.202176 4.116429 3.164620 0.490520 0.419870 0.303800 18.103124 -11.173745 3.033900 -5.079337 4.433658 -12.687340 13.225321 -10.632946 34.520587 -0.874047 -5.972634 2.260133 0.206930 -0.080070 0.030230 -4.092529 -0.962156 -8.084225 13.846617 -7.308691 33.435818 -21.019772 0.139998 7.516647 13.779354 -2.942770 -9.733692 -5.786107 0.193170 45.356264 3.002990 -5.300610 -20.599750 -31.516230 -8.643147 2.624497 -37.439080 -2.699870 -12.209179 -22.337667 -49.101799 5.261316 -3.006432 3.361722 0.543210 -0.201000 0.174020 0.055220 3.491390 14.201508 6.589164 -11.039804 6.913867 -8.050972 -30.056601 28.437607 -6.149759 2.179065 -1.399516 -0.036420 0.269360 -0.055800 -0.143710 
-0.051850 17.079100 -2.726190 -2.699929 21.604239 -9.397537 -15.106544 13.432478 3.195189 3.353695 -0.661677 -5.850261 -10.170548 6.304540 11.121131 -0.197804 4.118031 3.165270 0.487860 0.418450 0.298580 18.119403 -11.200558 3.038655 -5.221211 4.485196 -12.649414 13.322860 -10.707319 34.681393 -0.882614 -6.014729 2.246869 0.204780 -0.077880 0.026460 -4.146938 -0.861088 -8.083175 14.016265 -7.336170 33.347038 -21.233961 0.194810 7.660659 13.624936 -2.930524 -9.900937 -5.810733 0.123325 45.544114 3.338630 -5.446010 -20.493820 -31.459803 -8.816969 2.796208 -37.451034 -2.221380 -12.578821 -22.332795 -49.529729 5.192750 -2.987165 3.371594 0.544570 -0.203590 0.173660 0.056200 3.723281 14.366239 6.799384 -11.792288 7.142253 -7.694934 -28.544519 25.367986 -5.228056 2.219771 -1.387164 -0.037170 0.271890 -0.054940 -0.141220 
-0.049530 17.077570 -2.724190 -2.673167 21.721271 -9.508236 -15.091940 13.403199 3.185790 3.316797 -0.649245 -5.696890 -10.166038 6.315839 11.158135 -0.191549 4.120498 3.166339 0.486090 0.417340 0.294160 18.134995 -11.224653 3.042102 -5.355296 4.529673 -12.608018 13.410996 -10.774096 34.825535 -0.890580 -6.052371 2.235954 0.202120 -0.075340 0.022870 -4.197745 -0.770308 -8.082479 14.173476 -7.369990 33.261001 -21.420358 0.235771 7.807666 13.461390 -2.942654 -10.065102 -5.893631 0.083915 45.751764 3.703380 -5.608440 -20.387090 -31.364603 -9.016294 2.968454 -37.463431 -1.794755 -12.892758 -22.383439 -49.874354 5.148102 -2.969681 3.379648 0.545410 -0.206380 0.173290 0.057950 3.939002 14.568153 6.985342 -12.489949 7.332287 -7.403376 -27.217426 22.757487 -4.502802 2.255851 -1.371082 -0.037040 0.274470 -0.055060 -0.138100 
-0.047670 17.076750 -2.722750 -2.642077 21.825380 -9.609378 -15.078920 13.376795 3.177225 3.279395 -0.637545 -5.558162 -10.163568 6.327101 11.196569 -0.184779 4.122710 3.166897 0.484620 0.417090 0.288770 18.149085 -11.246236 3.044504 -5.480757 4.568443 -12.567631 13.485517 -10.831505 34.955701 -0.898063 -6.085773 2.226019 0.200020 -0.072930 0.020100 -4.243170 -0.689849 -8.081888 14.297810 -7.392397 33.184998 -21.572958 0.275057 7.945508 13.297191 -2.957940 -10.214711 -5.984863 0.069897 45.963280 4.099660 -5.764010 -20.296170 -31.243402 -9.221710 3.125329 -37.469259 -1.445440 -13.140038 -22.454105 -50.115339 5.116886 -2.955241 3.386217 0.545890 -0.209370 0.173660 0.060480 4.134486 14.773531 7.144587 -13.115688 7.494806 -7.155667 -26.020524 20.558989 -3.921856 2.287297 -1.353195 -0.036230 0.276590 -0.055300 -0.134230 
-0.046450 17.076640 -2.721850 -2.599715 21.908889 -9.700605 -15.068255 13.355046 3.170251 3.234547 -0.627387 -5.432829 -10.151306 6.335514 11.232341 -0.179418 4.124950 3.167661 0.482000 0.414670 0.283670 18.160611 -11.265666 3.045278 -5.592477 4.599133 -12.524214 13.525683 -10.872941 35.074759 -0.903613 -6.113201 2.217797 0.197120 -0.069740 0.017290 -4.280320 -0.622285 -8.081187 14.360002 -7.402687 33.130365 -21.691788 0.313145 8.083695 13.146444 -2.960499 -10.364602 -6.047157 0.075081 46.177006 4.481080 -5.892420 -20.179150 -31.109908 -9.433484 3.282758 -37.477091 -1.117464 -13.374346 -22.545446 -50.375901 5.099906 -2.942330 3.392054 0.546820 -0.211790 0.173130 0.062140 4.296586 14.982994 7.292534 -13.675740 7.639676 -6.946217 -24.947412 18.620554 -3.446298 2.315698 -1.333809 -0.036560 0.278920 -0.054470 -0.131190 
-0.045390 17.076950 -2.721570 -2.563925 21.986646 -9.794737 -15.059065 13.337813 3.163289 3.187065 -0.617689 -5.317346 -10.110582 6.338570 11.275111 -0.175829 4.125854 3.168860 0.478310 0.410730 0.277450 18.170500 -11.283722 3.045083 -5.682923 4.621203 -12.471404 13.538802 -10.901997 35.179465 -0.907255 -6.135685 2.212243 0.193820 -0.065630 0.014290 -4.312625 -0.565301 -8.079704 14.408619 -7.417086 33.088668 -21.786993 0.344250 8.225206 13.005335 -2.965728 -10.512230 -6.113946 0.100294 46.391425 4.866820 -6.014460 -20.047040 -30.957578 -9.651056 3.440733 -37.523257 -0.817505 -13.596612 -22.611237 -50.638871 5.073622 -2.931813 3.395925 0.547960 -0.213340 0.171480 0.063460 4.425013 15.198820 7.425984 -14.226916 7.741084 -6.759134 -23.924823 16.970550 -3.044353 2.339599 -1.313099 -0.037820 0.281600 -0.052480 -0.128620 
